<?xml version="1.0" encoding="UTF-8"?>
<svg width="80px" height="80px" viewBox="0 0 80 80" version="1.1" xmlns="http://www.w3.org/2000/svg" xmlns:xlink="http://www.w3.org/1999/xlink">
    <!-- Generator: Sketch 52.6 (67491) - http://www.bohemiancoding.com/sketch -->
    <title>icon-mask</title>
    <desc>Created with Sketch.</desc>
    <g id="Page-1" stroke="none" stroke-width="1" fill="none" fill-rule="evenodd">
        <g id="icon-mask" transform="translate(3.000000, 3.000000)">
            <circle id="Oval" stroke="#000000" stroke-width="5" cx="37" cy="37" r="37"></circle>
            <g id="icon" transform="translate(21.000000, 15.000000)" fill="#000000">
                <path d="M7.92961165,30.0400501 C8.19660194,31.9399249 8.7038835,33.3717146 9.45145631,34.3078849 C10.8398058,36.0150188 13.1893204,36.8961202 16.526699,36.8961202 C18.5291262,36.8961202 20.157767,36.6758448 21.4126214,36.2077597 C23.788835,35.3541927 24.9635922,33.7296621 24.9635922,31.3617021 C24.9635922,29.9849812 24.3762136,28.9111389 23.2281553,28.1677096 C22.0533981,27.4242804 20.211165,26.7909887 17.7014563,26.212766 L13.4029126,25.2490613 C9.15776699,24.2578223 6.24757282,23.18398 4.6723301,22.0550688 C2.00242718,20.1276596 0.640776699,17.126408 0.640776699,13.0237797 C0.640776699,9.27909887 1.94902913,6.19524406 4.56553398,3.71714643 C7.20873786,1.23904881 11.0533981,0 16.1529126,0 C20.3980583,0 24.0291262,1.15644556 27.0194175,3.49687109 C30.0097087,5.83729662 31.5849515,9.19649562 31.7451456,13.6295369 L23.7354369,13.6295369 C23.5752427,11.1239049 22.5072816,9.36170213 20.5315534,8.28785982 C19.1966019,7.59949937 17.5412621,7.24155194 15.565534,7.24155194 C13.3762136,7.24155194 11.6140777,7.68210263 10.3058252,8.59073842 C8.99757282,9.49937422 8.33009709,10.7659574 8.33009709,12.3904881 C8.33009709,13.8773467 8.97087379,15.0062578 10.2791262,15.7221527 C11.1067961,16.2177722 12.868932,16.795995 15.565534,17.456821 L22.5606796,19.1914894 C25.631068,19.9349186 27.9271845,20.9536921 29.4490291,22.2202753 C31.8252427,24.175219 33,27.0112641 33,30.7284105 C33,34.5281602 31.5849515,37.6946183 28.7815534,40.2277847 C25.9781553,42.7334168 22,44 16.8737864,44 C11.6407767,44 7.50242718,42.7609512 4.51213592,40.2828536 C1.49514563,37.8047559 0,34.3904881 0,30.0400501 L7.92961165,30.0400501 Z" id="Shape"></path>
            </g>
        </g>
    </g>
</svg>